<svg width="48" height="48" viewBox="0 0 48 48" fill="none" xmlns="http://www.w3.org/2000/svg">
<path d="M21.5105 19.0001C22.4941 19.0001 23.3336 18.6509 24.029 17.9526C24.724 17.2546 25.0715 16.4097 25.0715 15.4181C25.0715 14.4344 24.7225 13.5969 24.0245 12.9056C23.3261 12.2142 22.4851 11.8686 21.5015 11.8686C20.5098 11.8686 19.6663 12.2157 18.971 12.9101C18.276 13.6041 17.9285 14.4431 17.9285 15.4271C17.9285 16.4184 18.2775 17.2617 18.9755 17.9571C19.6738 18.6524 20.5188 19.0001 21.5105 19.0001ZM21.525 27.1316C22.8323 27.1316 24.0915 26.8629 25.3025 26.3256C26.5131 25.7886 27.5735 25.0087 28.4835 23.9861C27.3851 23.3114 26.2486 22.8117 25.074 22.4871C23.8993 22.1624 22.708 22.0001 21.5 22.0001C20.292 22.0001 19.1006 22.1624 17.926 22.4871C16.7513 22.8117 15.6148 23.3114 14.5165 23.9861C15.4735 25.0004 16.554 25.7782 17.758 26.3196C18.962 26.8609 20.2176 27.1316 21.525 27.1316ZM21.503 35.3351C17.1053 35.3351 13.3663 33.7947 10.286 30.7141C7.20531 27.6337 5.66498 23.8957 5.66498 19.5001C5.66498 15.1044 7.20531 11.3644 10.286 8.28006C13.3663 5.19573 17.1043 3.65356 21.5 3.65356C25.8956 3.65356 29.6356 5.19573 32.72 8.28006C35.8043 11.3644 37.3465 15.1054 37.3465 19.5031C37.3465 21.3011 37.0215 23.0664 36.3715 24.7991C35.7215 26.5317 34.8711 28.0766 33.8205 29.4336L43.189 38.8021C43.537 39.1501 43.711 39.5499 43.711 40.0016C43.711 40.4536 43.537 40.8494 43.189 41.1891C42.8493 41.5371 42.4515 41.7111 41.9955 41.7111C41.5398 41.7111 41.142 41.5371 40.802 41.1891L31.4215 31.8206C30.0725 32.8792 28.5336 33.7296 26.805 34.3716C25.0763 35.0139 23.309 35.3351 21.503 35.3351ZM21.5305 31.9286C24.9605 31.9286 27.8843 30.7114 30.302 28.2771C32.7196 25.8431 33.9285 22.9072 33.9285 19.4696C33.9285 16.0396 32.721 13.1157 30.306 10.6981C27.891 8.2804 24.9575 7.07156 21.5055 7.07156C18.0845 7.07156 15.157 8.27906 12.723 10.6941C10.2886 13.1091 9.07148 16.0426 9.07148 19.4946C9.07148 22.9156 10.2886 25.8431 12.723 28.2771C15.157 30.7114 18.0928 31.9286 21.5305 31.9286Z" fill="#2998F2"/>
</svg>
