<svg width="467" height="451" viewBox="0 0 467 451" fill="none" xmlns="http://www.w3.org/2000/svg">
<rect width="445" height="451" fill="url(#paint0_radial_1_4170)"/>
<g filter="url(#filter0_d_1_4170)">
<rect x="26.82" y="71.1206" width="92.16" height="92.16" rx="15.36" fill="white" shape-rendering="crispEdges"/>
<g clip-path="url(#clip0_1_4170)">
<path d="M82.5006 129.679C78.0894 131.77 73.224 132.721 68.3502 132.444C63.7003 131.662 59.3224 129.72 55.6206 126.799" stroke="black" stroke-width="3.84" stroke-linecap="round" stroke-linejoin="round"/>
<path d="M87.3011 134.48C89.0426 131.771 90.087 128.1 90.1811 124.88C87.8829 123.396 85.2333 123.085 82.5011 122.96" stroke="black" stroke-width="3.84" stroke-linecap="round" stroke-linejoin="round"/>
<path d="M55.6206 115.28V106.64C55.6206 105.876 55.9241 105.144 56.4642 104.604C57.0043 104.064 57.7368 103.76 58.5006 103.76C59.2645 103.76 59.997 104.064 60.5371 104.604C61.0772 105.144 61.3806 105.876 61.3806 106.64V115.28" stroke="black" stroke-width="3.84" stroke-linecap="round" stroke-linejoin="round"/>
<path d="M55.6206 111.441H61.3806" stroke="black" stroke-width="3.84" stroke-linecap="round" stroke-linejoin="round"/>
<path d="M67.1402 103.76L69.4442 115.28L72.9002 107.6L76.3562 115.28L78.6602 103.76" stroke="black" stroke-width="3.84" stroke-linecap="round" stroke-linejoin="round"/>
<path d="M84.4206 113.84C84.4206 114.635 85.0658 115.28 85.8606 115.28H88.2606C88.7699 115.28 89.2582 115.078 89.6183 114.718C89.9784 114.358 90.1806 113.869 90.1806 113.36V111.44C90.1806 110.931 89.9784 110.443 89.6183 110.083C89.2582 109.723 88.7699 109.52 88.2606 109.52H86.3406C85.8314 109.52 85.3431 109.318 84.983 108.958C84.6229 108.598 84.4206 108.109 84.4206 107.6V105.68C84.4206 105.171 84.6229 104.683 84.983 104.323C85.3431 103.963 85.8314 103.76 86.3406 103.76H88.7406C89.1226 103.76 89.4888 103.912 89.7589 104.182C90.0289 104.452 90.1806 104.818 90.1806 105.2" stroke="black" stroke-width="3.84" stroke-linecap="round" stroke-linejoin="round"/>
</g>
</g>
<g filter="url(#filter1_d_1_4170)">
<rect x="164.104" y="147.104" width="110.592" height="110.592" rx="18.432" fill="white" shape-rendering="crispEdges"/>
<g clip-path="url(#clip1_1_4170)">
<path d="M207.091 216.223C201.166 216.223 196.362 211.599 196.362 205.894C196.362 200.191 201.166 195.567 207.091 195.567C207.997 191.508 211.225 188.195 215.559 186.874C219.89 185.556 224.673 186.43 228.102 189.178C231.53 191.92 233.083 196.107 232.18 200.166H234.461C238.868 200.166 242.442 203.76 242.442 208.198C242.442 212.638 238.868 216.232 234.458 216.232H207.091" stroke="black" stroke-width="4.608" stroke-linecap="round" stroke-linejoin="round"/>
</g>
</g>
<g filter="url(#filter2_d_1_4170)">
<rect x="45" y="264" width="76.8" height="76.8" rx="12.8" fill="white" shape-rendering="crispEdges"/>
<g clip-path="url(#clip2_1_4170)">
<path d="M99.3992 303.264C96.5128 302.712 95.0776 301.536 93.7624 298.56C92.9832 299.674 91.9992 301.069 92.2904 302.4C92.3352 302.781 91.7784 304 91.3992 304H68.9992C68.9992 312.333 74.0616 315.2 78.9128 315.2C85.5112 315.235 91.4376 312.998 94.6792 307.2C96.5128 307.038 98.3528 304.792 99.3992 303.264Z" stroke="black" stroke-width="3.2" stroke-linecap="round" stroke-linejoin="round"/>
<path d="M72.1992 299.201H76.9992V304.001H72.1992V299.201Z" stroke="black" stroke-width="3.2" stroke-linecap="round" stroke-linejoin="round"/>
<path d="M76.9992 299.201H81.7992V304.001H76.9992V299.201Z" stroke="black" stroke-width="3.2" stroke-linecap="round" stroke-linejoin="round"/>
<path d="M81.7992 299.201H86.5992V304.001H81.7992V299.201Z" stroke="black" stroke-width="3.2" stroke-linecap="round" stroke-linejoin="round"/>
<path d="M76.9992 294.4H81.7992V299.2H76.9992V294.4Z" stroke="black" stroke-width="3.2" stroke-linecap="round" stroke-linejoin="round"/>
<path d="M81.7992 294.4H86.5992V299.2H81.7992V294.4Z" stroke="black" stroke-width="3.2" stroke-linecap="round" stroke-linejoin="round"/>
<path d="M81.7992 289.601H86.5992V294.401H81.7992V289.601Z" stroke="black" stroke-width="3.2" stroke-linecap="round" stroke-linejoin="round"/>
<path d="M71.5117 312.002C73.9117 312.002 74.7869 311.884 76.2445 310.754" stroke="black" stroke-width="3.2" stroke-linecap="round" stroke-linejoin="round"/>
<path d="M80.1992 308.801V308.817" stroke="black" stroke-width="3.2" stroke-linecap="round" stroke-linejoin="round"/>
</g>
</g>
<g filter="url(#filter3_d_1_4170)">
<rect x="364.16" y="209.16" width="84.48" height="84.48" rx="14.08" fill="white" shape-rendering="crispEdges"/>
<g clip-path="url(#clip3_1_4170)">
<path d="M395.839 243.479L388.799 260.199H395.839L406.399 233.799L395.839 243.479Z" stroke="black" stroke-width="3.52" stroke-linecap="round" stroke-linejoin="round"/>
<path d="M423.999 265.48L411.679 239.08L406.399 251.4L413.439 260.2L399.359 265.48H423.999Z" stroke="black" stroke-width="3.52" stroke-linecap="round" stroke-linejoin="round"/>
</g>
</g>
<g filter="url(#filter4_d_1_4170)">
<rect x="295" y="35" width="92.16" height="92.16" rx="15.36" fill="white" shape-rendering="crispEdges"/>
<g clip-path="url(#clip4_1_4170)">
<path d="M354.519 92.5999C356.301 92.5999 358.011 91.8919 359.271 90.6316C360.531 89.3714 361.239 87.6621 361.239 85.8799C361.239 84.0976 360.531 82.3884 359.271 81.1281C358.011 79.8679 356.301 79.1599 354.519 79.1599H352.599C353.361 75.7653 352.052 72.2613 349.166 69.9688C346.281 67.6783 342.254 66.9448 338.606 68.0488C334.958 69.1528 332.241 71.9253 331.479 75.3199C327.257 75.1509 323.502 77.8658 322.521 81.796C321.537 85.7263 323.603 89.7717 327.447 91.4479" stroke="black" stroke-width="3.84" stroke-linecap="round" stroke-linejoin="round"/>
<path d="M333.398 88.7598C333.398 88.2506 333.601 87.7623 333.961 87.4022C334.321 87.0421 334.809 86.8398 335.318 86.8398H346.838C347.348 86.8398 347.836 87.0421 348.196 87.4022C348.556 87.7623 348.758 88.2506 348.758 88.7598V94.5198C348.758 95.0291 348.556 95.5174 348.196 95.8775C347.836 96.2376 347.348 96.4398 346.838 96.4398H335.318C334.809 96.4398 334.321 96.2376 333.961 95.8775C333.601 95.5174 333.398 95.0291 333.398 94.5198V88.7598Z" stroke="black" stroke-width="3.84" stroke-linecap="round" stroke-linejoin="round"/>
<path d="M337.24 86.8392V82.9992C337.24 81.9807 337.644 81.004 338.364 80.2839C339.085 79.5638 340.061 79.1592 341.08 79.1592C342.098 79.1592 343.075 79.5638 343.795 80.2839C344.515 81.004 344.92 81.9807 344.92 82.9992V86.8392" stroke="black" stroke-width="3.84" stroke-linecap="round" stroke-linejoin="round"/>
</g>
</g>
<g filter="url(#filter5_d_1_4170)">
<rect x="219" y="322" width="84.48" height="84.48" rx="14.08" fill="white" shape-rendering="crispEdges"/>
<g clip-path="url(#clip5_1_4170)">
<path d="M248.921 364.241H245.401L261.241 348.401L277.081 364.241H273.561" stroke="black" stroke-width="3.52" stroke-linecap="round" stroke-linejoin="round"/>
<path d="M248.92 364.239V376.559C248.92 377.493 249.291 378.388 249.951 379.048C250.611 379.708 251.506 380.079 252.44 380.079H270.04C270.973 380.079 271.869 379.708 272.529 379.048C273.189 378.388 273.56 377.493 273.56 376.559V364.239" stroke="black" stroke-width="3.52" stroke-linecap="round" stroke-linejoin="round"/>
<path d="M255.96 380.081V369.521C255.96 368.587 256.331 367.692 256.991 367.032C257.651 366.372 258.547 366.001 259.48 366.001H263C263.934 366.001 264.829 366.372 265.489 367.032C266.149 367.692 266.52 368.587 266.52 369.521V380.081" stroke="black" stroke-width="3.52" stroke-linecap="round" stroke-linejoin="round"/>
</g>
</g>
<defs>
<filter id="filter0_d_1_4170" x="7.62001" y="51.9206" width="130.56" height="130.56" filterUnits="userSpaceOnUse" color-interpolation-filters="sRGB">
<feFlood flood-opacity="0" result="BackgroundImageFix"/>
<feColorMatrix in="SourceAlpha" type="matrix" values="0 0 0 0 0 0 0 0 0 0 0 0 0 0 0 0 0 0 127 0" result="hardAlpha"/>
<feOffset/>
<feGaussianBlur stdDeviation="9.6"/>
<feComposite in2="hardAlpha" operator="out"/>
<feColorMatrix type="matrix" values="0 0 0 0 1 0 0 0 0 1 0 0 0 0 1 0 0 0 0.2 0"/>
<feBlend mode="normal" in2="BackgroundImageFix" result="effect1_dropShadow_1_4170"/>
<feBlend mode="normal" in="SourceGraphic" in2="effect1_dropShadow_1_4170" result="shape"/>
</filter>
<filter id="filter1_d_1_4170" x="141.064" y="124.064" width="156.672" height="156.672" filterUnits="userSpaceOnUse" color-interpolation-filters="sRGB">
<feFlood flood-opacity="0" result="BackgroundImageFix"/>
<feColorMatrix in="SourceAlpha" type="matrix" values="0 0 0 0 0 0 0 0 0 0 0 0 0 0 0 0 0 0 127 0" result="hardAlpha"/>
<feOffset/>
<feGaussianBlur stdDeviation="11.52"/>
<feComposite in2="hardAlpha" operator="out"/>
<feColorMatrix type="matrix" values="0 0 0 0 1 0 0 0 0 1 0 0 0 0 1 0 0 0 0.2 0"/>
<feBlend mode="normal" in2="BackgroundImageFix" result="effect1_dropShadow_1_4170"/>
<feBlend mode="normal" in="SourceGraphic" in2="effect1_dropShadow_1_4170" result="shape"/>
</filter>
<filter id="filter2_d_1_4170" x="29" y="248" width="108.8" height="108.8" filterUnits="userSpaceOnUse" color-interpolation-filters="sRGB">
<feFlood flood-opacity="0" result="BackgroundImageFix"/>
<feColorMatrix in="SourceAlpha" type="matrix" values="0 0 0 0 0 0 0 0 0 0 0 0 0 0 0 0 0 0 127 0" result="hardAlpha"/>
<feOffset/>
<feGaussianBlur stdDeviation="8"/>
<feComposite in2="hardAlpha" operator="out"/>
<feColorMatrix type="matrix" values="0 0 0 0 1 0 0 0 0 1 0 0 0 0 1 0 0 0 0.2 0"/>
<feBlend mode="normal" in2="BackgroundImageFix" result="effect1_dropShadow_1_4170"/>
<feBlend mode="normal" in="SourceGraphic" in2="effect1_dropShadow_1_4170" result="shape"/>
</filter>
<filter id="filter3_d_1_4170" x="346.56" y="191.56" width="119.68" height="119.68" filterUnits="userSpaceOnUse" color-interpolation-filters="sRGB">
<feFlood flood-opacity="0" result="BackgroundImageFix"/>
<feColorMatrix in="SourceAlpha" type="matrix" values="0 0 0 0 0 0 0 0 0 0 0 0 0 0 0 0 0 0 127 0" result="hardAlpha"/>
<feOffset/>
<feGaussianBlur stdDeviation="8.8"/>
<feComposite in2="hardAlpha" operator="out"/>
<feColorMatrix type="matrix" values="0 0 0 0 1 0 0 0 0 1 0 0 0 0 1 0 0 0 0.2 0"/>
<feBlend mode="normal" in2="BackgroundImageFix" result="effect1_dropShadow_1_4170"/>
<feBlend mode="normal" in="SourceGraphic" in2="effect1_dropShadow_1_4170" result="shape"/>
</filter>
<filter id="filter4_d_1_4170" x="275.8" y="15.8" width="130.56" height="130.56" filterUnits="userSpaceOnUse" color-interpolation-filters="sRGB">
<feFlood flood-opacity="0" result="BackgroundImageFix"/>
<feColorMatrix in="SourceAlpha" type="matrix" values="0 0 0 0 0 0 0 0 0 0 0 0 0 0 0 0 0 0 127 0" result="hardAlpha"/>
<feOffset/>
<feGaussianBlur stdDeviation="9.6"/>
<feComposite in2="hardAlpha" operator="out"/>
<feColorMatrix type="matrix" values="0 0 0 0 1 0 0 0 0 1 0 0 0 0 1 0 0 0 0.2 0"/>
<feBlend mode="normal" in2="BackgroundImageFix" result="effect1_dropShadow_1_4170"/>
<feBlend mode="normal" in="SourceGraphic" in2="effect1_dropShadow_1_4170" result="shape"/>
</filter>
<filter id="filter5_d_1_4170" x="201.4" y="304.4" width="119.68" height="119.68" filterUnits="userSpaceOnUse" color-interpolation-filters="sRGB">
<feFlood flood-opacity="0" result="BackgroundImageFix"/>
<feColorMatrix in="SourceAlpha" type="matrix" values="0 0 0 0 0 0 0 0 0 0 0 0 0 0 0 0 0 0 127 0" result="hardAlpha"/>
<feOffset/>
<feGaussianBlur stdDeviation="8.8"/>
<feComposite in2="hardAlpha" operator="out"/>
<feColorMatrix type="matrix" values="0 0 0 0 1 0 0 0 0 1 0 0 0 0 1 0 0 0 0.2 0"/>
<feBlend mode="normal" in2="BackgroundImageFix" result="effect1_dropShadow_1_4170"/>
<feBlend mode="normal" in="SourceGraphic" in2="effect1_dropShadow_1_4170" result="shape"/>
</filter>
<radialGradient id="paint0_radial_1_4170" cx="0" cy="0" r="1" gradientTransform="matrix(222.5 225.5 -222.5 225.5 222.5 225.5)" gradientUnits="userSpaceOnUse">
<stop stop-color="#031C30"/>
<stop offset="0.66276" stop-color="#050704" stop-opacity="0.7"/>
<stop offset="1" stop-opacity="0"/>
</radialGradient>
<clipPath id="clip0_1_4170">
<rect width="46.08" height="46.08" fill="white" transform="translate(49.86 94.1606)"/>
</clipPath>
<clipPath id="clip1_1_4170">
<rect width="55.296" height="55.296" fill="white" transform="translate(191.752 174.752)"/>
</clipPath>
<clipPath id="clip2_1_4170">
<rect width="38.4" height="38.4" fill="white" transform="translate(64.2 283.2)"/>
</clipPath>
<clipPath id="clip3_1_4170">
<rect width="42.24" height="42.24" fill="white" transform="translate(385.28 230.28)"/>
</clipPath>
<clipPath id="clip4_1_4170">
<rect width="46.08" height="46.08" fill="white" transform="translate(318.04 58.04)"/>
</clipPath>
<clipPath id="clip5_1_4170">
<rect width="42.24" height="42.24" fill="white" transform="translate(240.12 343.12)"/>
</clipPath>
</defs>
</svg>
