<svg width="534" height="360" viewBox="0 0 534 360" fill="none" xmlns="http://www.w3.org/2000/svg">
<g filter="url(#filter0_d_1_4249)">
<rect x="23.04" y="23.04" width="137.296" height="137.296" rx="18.432" fill="#146699" shape-rendering="crispEdges"/>
<g clip-path="url(#clip0_1_4249)">
<path d="M54.1047 78.0215H129.271V101.938H88.2713V108.771H74.6047V101.938H54.1047V78.0215Z" stroke="white" stroke-width="6.83333" stroke-linecap="round" stroke-linejoin="round"/>
<path d="M74.6047 78.0215V101.938" stroke="white" stroke-width="6.83333" stroke-linecap="round" stroke-linejoin="round"/>
<path d="M98.5213 78.0215V101.938" stroke="white" stroke-width="6.83333" stroke-linecap="round" stroke-linejoin="round"/>
<path d="M108.771 88.2715V101.938" stroke="white" stroke-width="6.83333" stroke-linecap="round" stroke-linejoin="round"/>
<path d="M64.3547 88.2715V101.938" stroke="white" stroke-width="6.83333" stroke-linecap="round" stroke-linejoin="round"/>
<path d="M88.2713 88.2715V91.6882" stroke="white" stroke-width="6.83333" stroke-linecap="round" stroke-linejoin="round"/>
<path d="M119.021 88.2715V101.938" stroke="white" stroke-width="6.83333" stroke-linecap="round" stroke-linejoin="round"/>
</g>
</g>
<g filter="url(#filter1_d_1_4249)">
<rect x="200.336" y="23.04" width="135.296" height="135.296" rx="18.432" fill="#146699" shape-rendering="crispEdges"/>
<g clip-path="url(#clip1_1_4249)">
<path d="M257.984 80.6879V107.501C257.984 108.67 257.676 109.818 257.092 110.831C256.508 111.843 255.668 112.685 254.657 113.27C253.645 113.856 252.497 114.165 251.329 114.167C250.16 114.169 249.011 113.863 247.997 113.281L242.771 110.281C241.308 109.388 240.1 108.133 239.262 106.639C238.423 105.144 237.983 103.458 237.984 101.745V79.6279C237.984 77.9146 238.424 76.2301 239.262 74.7359C240.101 73.2416 241.309 71.9878 242.771 71.0946L262.771 58.8713C264.34 57.9122 266.144 57.4048 267.984 57.4048C269.824 57.4048 271.627 57.9122 273.197 58.8713L293.197 71.0946C294.66 71.9881 295.868 73.2424 296.706 74.7373C297.545 76.2322 297.984 77.9174 297.984 79.6313V101.745C297.984 103.458 297.544 105.142 296.706 106.637C295.867 108.131 294.659 109.385 293.197 110.278L273.197 122.501C271.627 123.46 269.824 123.968 267.984 123.968C266.144 123.968 264.34 123.46 262.771 122.501" stroke="white" stroke-width="7" stroke-linecap="round" stroke-linejoin="round"/>
<path d="M284.651 80.688H272.984C271.658 80.688 270.386 81.2148 269.448 82.1525C268.511 83.0901 267.984 84.3619 267.984 85.688C267.984 87.0141 268.511 88.2858 269.448 89.2235C270.386 90.1612 271.658 90.688 272.984 90.688H279.651C280.977 90.688 282.248 91.2148 283.186 92.1525C284.124 93.0901 284.651 94.3619 284.651 95.688C284.651 97.0141 284.124 98.2858 283.186 99.2235C282.248 100.161 280.977 100.688 279.651 100.688H267.984" stroke="white" stroke-width="7" stroke-linecap="round" stroke-linejoin="round"/>
</g>
</g>
<g filter="url(#filter2_d_1_4249)">
<rect x="375.632" y="23.04" width="135.296" height="135.296" rx="18.432" fill="#146699" shape-rendering="crispEdges"/>
<g clip-path="url(#clip2_1_4249)">
<path d="M443.28 80.688H419.947C418.179 80.688 416.483 81.3904 415.233 82.6406C413.982 83.8909 413.28 85.5865 413.28 87.3547V100.688C413.28 102.456 413.982 104.152 415.233 105.402C416.483 106.652 418.179 107.355 419.947 107.355H429.947" stroke="white" stroke-width="6.66667" stroke-linecap="round" stroke-linejoin="round"/>
<path d="M443.28 100.688H466.613C468.381 100.688 470.077 99.9858 471.327 98.7355C472.578 97.4853 473.28 95.7896 473.28 94.0215V80.6882C473.28 78.92 472.578 77.2243 471.327 75.9741C470.077 74.7239 468.381 74.0215 466.613 74.0215H456.613" stroke="white" stroke-width="6.66667" stroke-linecap="round" stroke-linejoin="round"/>
<path d="M429.947 80.688V67.3547C429.947 65.5865 430.649 63.8909 431.899 62.6406C433.149 61.3904 434.845 60.688 436.613 60.688H449.947C451.715 60.688 453.41 61.3904 454.661 62.6406C455.911 63.8909 456.613 65.5865 456.613 67.3547V84.0213C456.613 85.7894 455.911 87.4851 454.661 88.7354C453.41 89.9856 451.715 90.688 449.947 90.688H436.613C434.845 90.688 433.149 91.3904 431.899 92.6406C430.649 93.8909 429.947 95.5865 429.947 97.3547V114.021C429.947 115.789 430.649 117.485 431.899 118.735C433.149 119.986 434.845 120.688 436.613 120.688H449.947C451.715 120.688 453.41 119.986 454.661 118.735C455.911 117.485 456.613 115.789 456.613 114.021V100.688" stroke="white" stroke-width="6.66667" stroke-linecap="round" stroke-linejoin="round"/>
<path d="M439.947 70.688V70.7213" stroke="white" stroke-width="6.66667" stroke-linecap="round" stroke-linejoin="round"/>
<path d="M446.613 110.688V110.721" stroke="white" stroke-width="6.66667" stroke-linecap="round" stroke-linejoin="round"/>
</g>
</g>
<g filter="url(#filter3_d_1_4249)">
<rect x="23.04" y="199.336" width="135.296" height="135.296" rx="18.432" fill="#146699" shape-rendering="crispEdges"/>
<g clip-path="url(#clip3_1_4249)">
<path d="M57.3547 266.984C57.3547 274.94 60.8666 282.571 67.1178 288.197C73.369 293.823 81.8475 296.984 90.688 296.984C99.5286 296.984 108.007 293.823 114.258 288.197C120.509 282.571 124.021 274.94 124.021 266.984C124.021 259.027 120.509 251.397 114.258 245.771C108.007 240.145 99.5286 236.984 90.688 236.984C81.8475 236.984 73.369 240.145 67.1178 245.771C60.8666 251.397 57.3547 259.027 57.3547 266.984Z" stroke="white" stroke-width="6.66667" stroke-linecap="round" stroke-linejoin="round"/>
<path d="M69.0213 276.984L70.338 270.404L72.3546 260.317H76.7546C77.2385 260.318 77.7165 260.423 78.1555 260.627C78.5944 260.83 78.9838 261.127 79.2966 261.496C79.6093 261.865 79.8379 262.298 79.9665 262.765C80.0951 263.231 80.1207 263.72 80.0413 264.197L79.4846 267.531C79.3552 268.309 78.9539 269.016 78.3521 269.527C77.7503 270.037 76.987 270.317 76.198 270.317H70.688" stroke="white" stroke-width="6.66667" stroke-linecap="round" stroke-linejoin="round"/>
<path d="M102.355 276.984L103.671 270.404L105.688 260.317H110.088C110.572 260.318 111.05 260.423 111.489 260.627C111.928 260.83 112.317 261.127 112.63 261.496C112.943 261.865 113.171 262.298 113.3 262.765C113.429 263.231 113.454 263.72 113.375 264.197L112.818 267.531C112.689 268.309 112.287 269.016 111.685 269.527C111.084 270.037 110.32 270.317 109.531 270.317H104.021" stroke="white" stroke-width="6.66667" stroke-linecap="round" stroke-linejoin="round"/>
<path d="M90.688 251.984L87.3547 270.317" stroke="white" stroke-width="6.66667" stroke-linecap="round" stroke-linejoin="round"/>
<path d="M89.3533 260.317H97.3533L95.6867 270.317" stroke="white" stroke-width="6.66667" stroke-linecap="round" stroke-linejoin="round"/>
</g>
</g>
<g filter="url(#filter4_d_1_4249)">
<rect x="198.336" y="199.336" width="135.296" height="135.296" rx="18.432" fill="#146699" shape-rendering="crispEdges"/>
<g clip-path="url(#clip4_1_4249)">
<path d="M292.651 240.317L285.984 288.651L265.984 295.317L245.984 288.651L239.317 240.317H292.651Z" stroke="white" stroke-width="6.66667" stroke-linecap="round" stroke-linejoin="round"/>
<path d="M250.984 253.65H260.984V280.317L254.317 276.984" stroke="white" stroke-width="6.66667" stroke-linecap="round" stroke-linejoin="round"/>
<path d="M280.984 253.65H272.651C272.209 253.65 271.785 253.826 271.472 254.139C271.16 254.451 270.984 254.875 270.984 255.317V265.317C270.984 265.759 271.16 266.183 271.472 266.496C271.785 266.808 272.209 266.984 272.651 266.984H277.394C277.633 266.984 277.868 267.035 278.085 267.134C278.302 267.233 278.496 267.377 278.652 267.558C278.809 267.738 278.924 267.949 278.992 268.178C279.06 268.407 279.077 268.648 279.044 268.884L277.651 278.65L270.984 280.317" stroke="white" stroke-width="6.66667" stroke-linecap="round" stroke-linejoin="round"/>
</g>
</g>
<g filter="url(#filter5_d_1_4249)">
<rect x="373.632" y="199.336" width="137.296" height="137.296" rx="18.432" fill="#146699" shape-rendering="crispEdges"/>
<g clip-path="url(#clip5_1_4249)">
<path d="M404.697 254.317H479.863V278.234H438.863V285.067H425.197V278.234H404.697V254.317Z" stroke="white" stroke-width="6.83333" stroke-linecap="round" stroke-linejoin="round"/>
<path d="M425.197 254.317V278.234" stroke="white" stroke-width="6.83333" stroke-linecap="round" stroke-linejoin="round"/>
<path d="M449.113 254.317V278.234" stroke="white" stroke-width="6.83333" stroke-linecap="round" stroke-linejoin="round"/>
<path d="M459.363 264.567V278.234" stroke="white" stroke-width="6.83333" stroke-linecap="round" stroke-linejoin="round"/>
<path d="M414.947 264.567V278.234" stroke="white" stroke-width="6.83333" stroke-linecap="round" stroke-linejoin="round"/>
<path d="M438.863 264.567V267.984" stroke="white" stroke-width="6.83333" stroke-linecap="round" stroke-linejoin="round"/>
<path d="M469.613 264.567V278.234" stroke="white" stroke-width="6.83333" stroke-linecap="round" stroke-linejoin="round"/>
</g>
</g>
<defs>
<filter id="filter0_d_1_4249" x="-2.28882e-05" y="3.8147e-05" width="183.376" height="183.376" filterUnits="userSpaceOnUse" color-interpolation-filters="sRGB">
<feFlood flood-opacity="0" result="BackgroundImageFix"/>
<feColorMatrix in="SourceAlpha" type="matrix" values="0 0 0 0 0 0 0 0 0 0 0 0 0 0 0 0 0 0 127 0" result="hardAlpha"/>
<feOffset/>
<feGaussianBlur stdDeviation="11.52"/>
<feComposite in2="hardAlpha" operator="out"/>
<feColorMatrix type="matrix" values="0 0 0 0 1 0 0 0 0 1 0 0 0 0 1 0 0 0 0.2 0"/>
<feBlend mode="normal" in2="BackgroundImageFix" result="effect1_dropShadow_1_4249"/>
<feBlend mode="normal" in="SourceGraphic" in2="effect1_dropShadow_1_4249" result="shape"/>
</filter>
<filter id="filter1_d_1_4249" x="177.296" y="3.8147e-05" width="181.376" height="181.376" filterUnits="userSpaceOnUse" color-interpolation-filters="sRGB">
<feFlood flood-opacity="0" result="BackgroundImageFix"/>
<feColorMatrix in="SourceAlpha" type="matrix" values="0 0 0 0 0 0 0 0 0 0 0 0 0 0 0 0 0 0 127 0" result="hardAlpha"/>
<feOffset/>
<feGaussianBlur stdDeviation="11.52"/>
<feComposite in2="hardAlpha" operator="out"/>
<feColorMatrix type="matrix" values="0 0 0 0 1 0 0 0 0 1 0 0 0 0 1 0 0 0 0.2 0"/>
<feBlend mode="normal" in2="BackgroundImageFix" result="effect1_dropShadow_1_4249"/>
<feBlend mode="normal" in="SourceGraphic" in2="effect1_dropShadow_1_4249" result="shape"/>
</filter>
<filter id="filter2_d_1_4249" x="352.592" y="3.8147e-05" width="181.376" height="181.376" filterUnits="userSpaceOnUse" color-interpolation-filters="sRGB">
<feFlood flood-opacity="0" result="BackgroundImageFix"/>
<feColorMatrix in="SourceAlpha" type="matrix" values="0 0 0 0 0 0 0 0 0 0 0 0 0 0 0 0 0 0 127 0" result="hardAlpha"/>
<feOffset/>
<feGaussianBlur stdDeviation="11.52"/>
<feComposite in2="hardAlpha" operator="out"/>
<feColorMatrix type="matrix" values="0 0 0 0 1 0 0 0 0 1 0 0 0 0 1 0 0 0 0.2 0"/>
<feBlend mode="normal" in2="BackgroundImageFix" result="effect1_dropShadow_1_4249"/>
<feBlend mode="normal" in="SourceGraphic" in2="effect1_dropShadow_1_4249" result="shape"/>
</filter>
<filter id="filter3_d_1_4249" x="-2.28882e-05" y="176.296" width="181.376" height="181.376" filterUnits="userSpaceOnUse" color-interpolation-filters="sRGB">
<feFlood flood-opacity="0" result="BackgroundImageFix"/>
<feColorMatrix in="SourceAlpha" type="matrix" values="0 0 0 0 0 0 0 0 0 0 0 0 0 0 0 0 0 0 127 0" result="hardAlpha"/>
<feOffset/>
<feGaussianBlur stdDeviation="11.52"/>
<feComposite in2="hardAlpha" operator="out"/>
<feColorMatrix type="matrix" values="0 0 0 0 1 0 0 0 0 1 0 0 0 0 1 0 0 0 0.2 0"/>
<feBlend mode="normal" in2="BackgroundImageFix" result="effect1_dropShadow_1_4249"/>
<feBlend mode="normal" in="SourceGraphic" in2="effect1_dropShadow_1_4249" result="shape"/>
</filter>
<filter id="filter4_d_1_4249" x="175.296" y="176.296" width="181.376" height="181.376" filterUnits="userSpaceOnUse" color-interpolation-filters="sRGB">
<feFlood flood-opacity="0" result="BackgroundImageFix"/>
<feColorMatrix in="SourceAlpha" type="matrix" values="0 0 0 0 0 0 0 0 0 0 0 0 0 0 0 0 0 0 127 0" result="hardAlpha"/>
<feOffset/>
<feGaussianBlur stdDeviation="11.52"/>
<feComposite in2="hardAlpha" operator="out"/>
<feColorMatrix type="matrix" values="0 0 0 0 1 0 0 0 0 1 0 0 0 0 1 0 0 0 0.2 0"/>
<feBlend mode="normal" in2="BackgroundImageFix" result="effect1_dropShadow_1_4249"/>
<feBlend mode="normal" in="SourceGraphic" in2="effect1_dropShadow_1_4249" result="shape"/>
</filter>
<filter id="filter5_d_1_4249" x="350.592" y="176.296" width="183.376" height="183.376" filterUnits="userSpaceOnUse" color-interpolation-filters="sRGB">
<feFlood flood-opacity="0" result="BackgroundImageFix"/>
<feColorMatrix in="SourceAlpha" type="matrix" values="0 0 0 0 0 0 0 0 0 0 0 0 0 0 0 0 0 0 127 0" result="hardAlpha"/>
<feOffset/>
<feGaussianBlur stdDeviation="11.52"/>
<feComposite in2="hardAlpha" operator="out"/>
<feColorMatrix type="matrix" values="0 0 0 0 1 0 0 0 0 1 0 0 0 0 1 0 0 0 0.2 0"/>
<feBlend mode="normal" in2="BackgroundImageFix" result="effect1_dropShadow_1_4249"/>
<feBlend mode="normal" in="SourceGraphic" in2="effect1_dropShadow_1_4249" result="shape"/>
</filter>
<clipPath id="clip0_1_4249">
<rect width="82" height="82" fill="white" transform="translate(50.688 50.688)"/>
</clipPath>
<clipPath id="clip1_1_4249">
<rect width="80" height="80" fill="white" transform="translate(227.984 50.688)"/>
</clipPath>
<clipPath id="clip2_1_4249">
<rect width="80" height="80" fill="white" transform="translate(403.28 50.688)"/>
</clipPath>
<clipPath id="clip3_1_4249">
<rect width="80" height="80" fill="white" transform="translate(50.688 226.984)"/>
</clipPath>
<clipPath id="clip4_1_4249">
<rect width="80" height="80" fill="white" transform="translate(225.984 226.984)"/>
</clipPath>
<clipPath id="clip5_1_4249">
<rect width="82" height="82" fill="white" transform="translate(401.28 226.984)"/>
</clipPath>
</defs>
</svg>
