<svg width="138" height="56" viewBox="0 0 138 56" fill="none" xmlns="http://www.w3.org/2000/svg">
<path d="M12.28 36.12C11.944 36.12 11.68 36.016 11.488 35.808C11.296 35.6 11.2 35.344 11.2 35.04C11.2 34.912 11.24 34.752 11.32 34.56L17.44 20.112C17.552 19.856 17.72 19.632 17.944 19.44C18.184 19.232 18.48 19.128 18.832 19.128H19.072C19.44 19.128 19.736 19.232 19.96 19.44C20.184 19.632 20.352 19.856 20.464 20.112L26.584 34.56C26.664 34.752 26.704 34.912 26.704 35.04C26.704 35.344 26.608 35.6 26.416 35.808C26.224 36.016 25.96 36.12 25.624 36.12C25.128 36.12 24.784 35.896 24.592 35.448L23.032 31.704H14.872L13.312 35.448C13.12 35.896 12.776 36.12 12.28 36.12ZM15.712 29.712H22.192L18.952 21.912L15.712 29.712ZM30.7416 36.12C30.4376 36.12 30.1816 36.016 29.9736 35.808C29.7656 35.6 29.6616 35.344 29.6616 35.04V24.744C29.6616 24.44 29.7656 24.184 29.9736 23.976C30.1816 23.752 30.4376 23.64 30.7416 23.64C31.0456 23.64 31.3016 23.752 31.5096 23.976C31.7336 24.184 31.8456 24.44 31.8456 24.744V25.776C32.2776 25.2 32.8056 24.68 33.4296 24.216C34.0536 23.752 34.7816 23.52 35.6136 23.52H35.7336C36.0376 23.52 36.2856 23.624 36.4776 23.832C36.6856 24.04 36.7896 24.296 36.7896 24.6C36.7896 24.904 36.6856 25.152 36.4776 25.344C36.2696 25.536 36.0056 25.632 35.6856 25.632H35.5656C34.7816 25.632 34.0696 25.832 33.4296 26.232C32.7896 26.616 32.2616 27.12 31.8456 27.744V35.04C31.8456 35.344 31.7336 35.6 31.5096 35.808C31.3016 36.016 31.0456 36.12 30.7416 36.12ZM42.4971 36.12C42.1771 36.12 41.8891 36.024 41.6331 35.832C41.3771 35.624 41.2011 35.384 41.1051 35.112L37.6971 25.128C37.6491 24.984 37.6251 24.848 37.6251 24.72C37.6251 24.416 37.7291 24.16 37.9371 23.952C38.1451 23.744 38.4011 23.64 38.7051 23.64C38.9291 23.64 39.1291 23.696 39.3051 23.808C39.4971 23.92 39.6251 24.08 39.6891 24.288L42.4971 33.528L45.2811 24.504C45.3611 24.248 45.5051 24.04 45.7131 23.88C45.9371 23.72 46.1851 23.64 46.4571 23.64C46.7291 23.64 46.9771 23.72 47.2011 23.88C47.4251 24.04 47.5691 24.248 47.6331 24.504L50.4171 33.528L53.2251 24.288C53.2891 24.08 53.4171 23.92 53.6091 23.808C53.8011 23.696 54.0011 23.64 54.2091 23.64C54.5131 23.64 54.7691 23.744 54.9771 23.952C55.1851 24.16 55.2891 24.416 55.2891 24.72C55.2891 24.848 55.2651 24.984 55.2171 25.128L51.8091 35.112C51.7131 35.384 51.5371 35.624 51.2811 35.832C51.0251 36.024 50.7371 36.12 50.4171 36.12C50.0971 36.12 49.8091 36.024 49.5531 35.832C49.2971 35.624 49.1131 35.376 49.0011 35.088L46.4571 27.144L43.9131 35.088C43.8011 35.376 43.6171 35.624 43.3611 35.832C43.1051 36.024 42.8171 36.12 42.4971 36.12ZM60.8363 36.24C60.1483 36.24 59.5003 36.096 58.8923 35.808C58.3003 35.52 57.8203 35.112 57.4523 34.584C57.1003 34.04 56.9243 33.392 56.9243 32.64C56.9243 31.504 57.3723 30.576 58.2683 29.856C59.1803 29.12 60.5723 28.752 62.4443 28.752H65.3483V28.56C65.3483 27.488 65.0843 26.728 64.5563 26.28C64.0283 25.816 63.2203 25.584 62.1323 25.584C61.4603 25.584 60.8683 25.648 60.3563 25.776C59.8603 25.888 59.3883 26.016 58.9403 26.16C58.8123 26.192 58.7083 26.208 58.6283 26.208C58.3883 26.208 58.1803 26.12 58.0043 25.944C57.8283 25.768 57.7403 25.552 57.7403 25.296C57.7403 24.864 57.9483 24.56 58.3643 24.384C58.9243 24.144 59.5403 23.944 60.2123 23.784C60.9003 23.608 61.6683 23.52 62.5163 23.52C63.6843 23.52 64.6363 23.752 65.3723 24.216C66.1083 24.68 66.6523 25.272 67.0043 25.992C67.3563 26.712 67.5323 27.464 67.5323 28.248V35.04C67.5323 35.344 67.4203 35.6 67.1963 35.808C66.9883 36.016 66.7323 36.12 66.4283 36.12C66.1243 36.12 65.8683 36.016 65.6603 35.808C65.4523 35.6 65.3483 35.344 65.3483 35.04V34.416C64.9163 34.864 64.3403 35.28 63.6203 35.664C62.9003 36.048 61.9723 36.24 60.8363 36.24ZM61.6523 34.32C62.4043 34.32 63.1083 34.136 63.7643 33.768C64.4203 33.4 64.9483 32.984 65.3483 32.52V30.504H62.7323C61.6123 30.504 60.7243 30.648 60.0683 30.936C59.4283 31.224 59.1083 31.712 59.1083 32.4C59.1083 32.912 59.2843 33.36 59.6363 33.744C60.0043 34.128 60.6763 34.32 61.6523 34.32ZM71.2488 36.12C70.9128 36.12 70.6488 36.016 70.4568 35.808C70.2648 35.6 70.1688 35.344 70.1688 35.04C70.1688 34.912 70.2088 34.752 70.2888 34.56L76.4088 20.112C76.5208 19.856 76.6888 19.632 76.9128 19.44C77.1528 19.232 77.4488 19.128 77.8008 19.128H78.0408C78.4088 19.128 78.7048 19.232 78.9288 19.44C79.1528 19.632 79.3208 19.856 79.4328 20.112L85.5528 34.56C85.6328 34.752 85.6728 34.912 85.6728 35.04C85.6728 35.344 85.5768 35.6 85.3848 35.808C85.1928 36.016 84.9288 36.12 84.5928 36.12C84.0968 36.12 83.7528 35.896 83.5608 35.448L82.0008 31.704H73.8408L72.2808 35.448C72.0888 35.896 71.7448 36.12 71.2488 36.12ZM74.6808 29.712H81.1608L77.9208 21.912L74.6808 29.712ZM90.283 36.12C89.979 36.12 89.723 36.016 89.515 35.808C89.307 35.6 89.203 35.344 89.203 35.04V20.352C89.203 20.048 89.307 19.792 89.515 19.584C89.723 19.36 89.979 19.248 90.283 19.248H95.755C96.971 19.248 97.987 19.408 98.803 19.728C99.635 20.032 100.291 20.448 100.771 20.976C101.267 21.488 101.619 22.056 101.827 22.68C102.051 23.304 102.163 23.936 102.163 24.576C102.163 25.216 102.051 25.848 101.827 26.472C101.619 27.096 101.267 27.672 100.771 28.2C100.291 28.712 99.635 29.128 98.803 29.448C97.987 29.752 96.971 29.904 95.755 29.904H91.387V35.04C91.387 35.344 91.275 35.6 91.051 35.808C90.843 36.016 90.587 36.12 90.283 36.12ZM91.387 27.84H95.539C96.739 27.84 97.659 27.68 98.299 27.36C98.939 27.024 99.379 26.608 99.619 26.112C99.859 25.6 99.979 25.088 99.979 24.576C99.979 24.048 99.859 23.536 99.619 23.04C99.379 22.544 98.939 22.136 98.299 21.816C97.659 21.48 96.739 21.312 95.539 21.312H91.387V27.84ZM106.408 36.12C106.104 36.12 105.848 36.016 105.64 35.808C105.432 35.6 105.328 35.344 105.328 35.04V20.232C105.328 19.928 105.432 19.672 105.64 19.464C105.848 19.24 106.104 19.128 106.408 19.128C106.712 19.128 106.968 19.24 107.176 19.464C107.4 19.672 107.512 19.928 107.512 20.232V35.04C107.512 35.344 107.4 35.6 107.176 35.808C106.968 36.016 106.712 36.12 106.408 36.12ZM115.442 36.24C114.562 36.24 113.762 36.144 113.042 35.952C112.338 35.76 111.682 35.496 111.074 35.16C110.802 34.968 110.666 34.704 110.666 34.368C110.666 34.128 110.754 33.912 110.93 33.72C111.106 33.512 111.33 33.408 111.602 33.408C111.746 33.408 111.89 33.44 112.034 33.504C112.466 33.696 112.938 33.864 113.45 34.008C113.978 34.152 114.594 34.224 115.298 34.224C116.226 34.224 116.898 34.08 117.314 33.792C117.746 33.488 117.962 33.064 117.962 32.52C117.962 32.168 117.786 31.896 117.434 31.704C117.098 31.512 116.65 31.352 116.09 31.224C115.546 31.08 114.97 30.936 114.362 30.792C113.754 30.632 113.17 30.424 112.61 30.168C112.066 29.896 111.618 29.536 111.266 29.088C110.93 28.624 110.762 28.032 110.762 27.312C110.762 26.224 111.154 25.32 111.938 24.6C112.722 23.88 113.89 23.52 115.442 23.52C116.098 23.52 116.714 23.576 117.29 23.688C117.882 23.8 118.426 23.944 118.922 24.12C119.146 24.184 119.314 24.312 119.426 24.504C119.554 24.68 119.618 24.856 119.618 25.032C119.618 25.288 119.522 25.512 119.33 25.704C119.154 25.896 118.93 25.992 118.658 25.992C118.594 25.992 118.538 25.992 118.49 25.992C118.442 25.976 118.394 25.96 118.346 25.944C117.962 25.816 117.538 25.712 117.074 25.632C116.626 25.552 116.138 25.512 115.61 25.512C114.73 25.512 114.05 25.672 113.57 25.992C113.09 26.312 112.85 26.712 112.85 27.192C112.85 27.608 113.018 27.928 113.354 28.152C113.706 28.376 114.154 28.56 114.698 28.704C115.258 28.832 115.842 28.968 116.45 29.112C117.074 29.256 117.658 29.464 118.202 29.736C118.762 29.992 119.21 30.352 119.546 30.816C119.898 31.28 120.074 31.904 120.074 32.688C120.074 33.664 119.682 34.504 118.898 35.208C118.13 35.896 116.978 36.24 115.442 36.24Z" fill="white"/>
<path d="M124.117 36.072C123.749 36.072 123.429 35.944 123.157 35.688C122.901 35.416 122.773 35.096 122.773 34.728V34.584C122.773 34.216 122.901 33.904 123.157 33.648C123.429 33.376 123.749 33.24 124.117 33.24H124.357C124.725 33.24 125.037 33.376 125.293 33.648C125.565 33.904 125.701 34.216 125.701 34.584V34.728C125.701 35.096 125.565 35.416 125.293 35.688C125.037 35.944 124.725 36.072 124.357 36.072H124.117Z" fill="#118DF0"/>
</svg>
