<svg width="178" height="56" viewBox="0 0 178 56" fill="none" xmlns="http://www.w3.org/2000/svg">
<path d="M17.56 36.24C16.424 36.24 15.368 35.992 14.392 35.496C13.416 34.984 12.632 34.256 12.04 33.312C11.448 32.352 11.152 31.208 11.152 29.88C11.152 28.536 11.448 27.392 12.04 26.448C12.632 25.504 13.416 24.784 14.392 24.288C15.368 23.776 16.424 23.52 17.56 23.52C18.504 23.52 19.288 23.648 19.912 23.904C20.552 24.144 21.072 24.4 21.472 24.672C21.792 24.88 21.952 25.16 21.952 25.512C21.952 25.736 21.864 25.952 21.688 26.16C21.512 26.368 21.296 26.472 21.04 26.472C20.864 26.472 20.688 26.424 20.512 26.328C20.096 26.104 19.688 25.92 19.288 25.776C18.888 25.632 18.376 25.56 17.752 25.56C16.36 25.56 15.272 25.96 14.488 26.76C13.72 27.56 13.336 28.6 13.336 29.88C13.336 31.16 13.72 32.2 14.488 33C15.272 33.8 16.36 34.2 17.752 34.2C18.376 34.2 18.888 34.128 19.288 33.984C19.688 33.824 20.096 33.64 20.512 33.432C20.688 33.336 20.864 33.288 21.04 33.288C21.296 33.288 21.512 33.392 21.688 33.6C21.864 33.808 21.952 34.024 21.952 34.248C21.952 34.6 21.792 34.88 21.472 35.088C21.072 35.344 20.552 35.6 19.912 35.856C19.288 36.112 18.504 36.24 17.56 36.24ZM25.7729 36.12C25.4689 36.12 25.2129 36.016 25.0049 35.808C24.7969 35.6 24.6929 35.344 24.6929 35.04V19.464C24.6929 19.144 24.7969 18.88 25.0049 18.672C25.2129 18.464 25.4689 18.36 25.7729 18.36C26.0929 18.36 26.3569 18.464 26.5649 18.672C26.7729 18.88 26.8769 19.144 26.8769 19.464V35.04C26.8769 35.344 26.7729 35.6 26.5649 35.808C26.3569 36.016 26.0929 36.12 25.7729 36.12ZM36.0694 36.24C34.8374 36.24 33.7574 35.976 32.8294 35.448C31.9014 34.904 31.1814 34.16 30.6694 33.216C30.1734 32.256 29.9254 31.144 29.9254 29.88C29.9254 28.616 30.1734 27.512 30.6694 26.568C31.1814 25.608 31.9014 24.864 32.8294 24.336C33.7574 23.792 34.8374 23.52 36.0694 23.52C37.3014 23.52 38.3734 23.792 39.2854 24.336C40.2134 24.864 40.9334 25.608 41.4454 26.568C41.9574 27.512 42.2134 28.616 42.2134 29.88C42.2134 31.144 41.9574 32.256 41.4454 33.216C40.9334 34.16 40.2134 34.904 39.2854 35.448C38.3734 35.976 37.3014 36.24 36.0694 36.24ZM36.0694 34.248C36.6774 34.248 37.2854 34.104 37.8934 33.816C38.5014 33.528 39.0054 33.064 39.4054 32.424C39.8214 31.768 40.0294 30.912 40.0294 29.856C40.0294 28.8 39.8214 27.952 39.4054 27.312C39.0054 26.672 38.5014 26.216 37.8934 25.944C37.2854 25.656 36.6774 25.512 36.0694 25.512C35.4614 25.512 34.8454 25.656 34.2214 25.944C33.6134 26.216 33.1094 26.672 32.7094 27.312C32.3094 27.952 32.1094 28.8 32.1094 29.856C32.1094 30.912 32.3094 31.768 32.7094 32.424C33.1094 33.064 33.6134 33.528 34.2214 33.816C34.8454 34.104 35.4614 34.248 36.0694 34.248ZM49.447 36.24C48.535 36.24 47.759 36.032 47.119 35.616C46.479 35.184 45.991 34.608 45.655 33.888C45.319 33.168 45.151 32.384 45.151 31.536V24.72C45.151 24.416 45.255 24.16 45.463 23.952C45.687 23.744 45.951 23.64 46.255 23.64C46.559 23.64 46.815 23.744 47.023 23.952C47.231 24.16 47.335 24.416 47.335 24.72V31.296C47.335 32.208 47.543 32.928 47.959 33.456C48.375 33.968 49.047 34.224 49.975 34.224C50.839 34.224 51.591 33.992 52.231 33.528C52.871 33.048 53.431 32.512 53.911 31.92V24.72C53.911 24.416 54.015 24.16 54.223 23.952C54.447 23.744 54.711 23.64 55.015 23.64C55.319 23.64 55.575 23.744 55.783 23.952C55.991 24.16 56.095 24.416 56.095 24.72V35.016C56.095 35.32 55.991 35.584 55.783 35.808C55.575 36.016 55.319 36.12 55.015 36.12C54.711 36.12 54.447 36.016 54.223 35.808C54.015 35.584 53.911 35.32 53.911 35.016V34.032C53.415 34.576 52.815 35.08 52.111 35.544C51.407 36.008 50.519 36.24 49.447 36.24ZM64.96 36.24C64 36.24 63.072 35.992 62.176 35.496C61.296 35 60.568 34.28 59.992 33.336C59.432 32.392 59.152 31.24 59.152 29.88C59.152 28.52 59.432 27.368 59.992 26.424C60.568 25.48 61.296 24.76 62.176 24.264C63.072 23.768 64 23.52 64.96 23.52C65.808 23.52 66.568 23.68 67.24 24C67.912 24.32 68.52 24.768 69.064 25.344V19.464C69.064 19.144 69.168 18.88 69.376 18.672C69.6 18.464 69.864 18.36 70.168 18.36C70.472 18.36 70.728 18.464 70.936 18.672C71.144 18.88 71.248 19.144 71.248 19.464V35.04C71.248 35.344 71.144 35.6 70.936 35.808C70.728 36.016 70.472 36.12 70.168 36.12C69.864 36.12 69.6 36.016 69.376 35.808C69.168 35.6 69.064 35.344 69.064 35.04V34.416C68.52 34.992 67.912 35.44 67.24 35.76C66.568 36.08 65.808 36.24 64.96 36.24ZM65.272 34.2C66.056 34.2 66.768 34.032 67.408 33.696C68.048 33.344 68.6 32.912 69.064 32.4V27.36C68.6 26.848 68.048 26.424 67.408 26.088C66.768 25.736 66.056 25.56 65.272 25.56C64.136 25.56 63.192 25.928 62.44 26.664C61.704 27.384 61.336 28.456 61.336 29.88C61.336 31.288 61.704 32.36 62.44 33.096C63.192 33.832 64.136 34.2 65.272 34.2ZM76.1166 36.12C75.8126 36.12 75.5566 36.016 75.3486 35.808C75.1406 35.6 75.0366 35.344 75.0366 35.04V24.744C75.0366 24.44 75.1406 24.184 75.3486 23.976C75.5566 23.752 75.8126 23.64 76.1166 23.64C76.4206 23.64 76.6766 23.752 76.8846 23.976C77.1086 24.184 77.2206 24.44 77.2206 24.744V25.728C77.4446 25.408 77.7246 25.08 78.0606 24.744C78.4126 24.408 78.8526 24.12 79.3806 23.88C79.9086 23.64 80.5486 23.52 81.3006 23.52C82.2606 23.52 83.0446 23.776 83.6526 24.288C84.2766 24.8 84.7166 25.368 84.9726 25.992C85.1646 25.688 85.4366 25.344 85.7886 24.96C86.1406 24.576 86.6046 24.24 87.1806 23.952C87.7726 23.664 88.5086 23.52 89.3886 23.52C90.3326 23.52 91.1006 23.76 91.6926 24.24C92.2846 24.704 92.7166 25.288 92.9886 25.992C93.2606 26.696 93.3966 27.408 93.3966 28.128V35.04C93.3966 35.344 93.2846 35.6 93.0606 35.808C92.8526 36.016 92.5966 36.12 92.2926 36.12C91.9886 36.12 91.7326 36.016 91.5246 35.808C91.3166 35.6 91.2126 35.344 91.2126 35.04V28.56C91.2126 27.552 91.0286 26.8 90.6606 26.304C90.3086 25.792 89.6766 25.536 88.7646 25.536C88.1566 25.536 87.6366 25.656 87.2046 25.896C86.7726 26.12 86.4046 26.408 86.1006 26.76C85.7966 27.112 85.5326 27.472 85.3086 27.84V35.04C85.3086 35.344 85.1966 35.6 84.9726 35.808C84.7646 36.016 84.5086 36.12 84.2046 36.12C83.9006 36.12 83.6446 36.016 83.4366 35.808C83.2286 35.6 83.1246 35.344 83.1246 35.04V28.56C83.1246 27.552 82.9406 26.8 82.5726 26.304C82.2206 25.792 81.5886 25.536 80.6766 25.536C80.0686 25.536 79.5486 25.656 79.1166 25.896C78.6846 26.12 78.3166 26.408 78.0126 26.76C77.7086 27.112 77.4446 27.472 77.2206 27.84V35.04C77.2206 35.344 77.1086 35.6 76.8846 35.808C76.6766 36.016 76.4206 36.12 76.1166 36.12ZM102.54 36.24C100.588 36.24 99.0599 35.688 97.9559 34.584C96.8679 33.464 96.3239 31.896 96.3239 29.88C96.3239 28.792 96.5239 27.768 96.9239 26.808C97.3239 25.832 97.9479 25.04 98.7959 24.432C99.6439 23.824 100.732 23.52 102.06 23.52C103.292 23.52 104.332 23.808 105.18 24.384C106.028 24.944 106.668 25.68 107.1 26.592C107.548 27.504 107.772 28.496 107.772 29.568C107.772 29.872 107.668 30.128 107.46 30.336C107.268 30.544 107.004 30.648 106.668 30.648H98.5319C98.6599 31.72 99.0679 32.584 99.7559 33.24C100.444 33.88 101.436 34.2 102.732 34.2C103.452 34.2 104.06 34.136 104.556 34.008C105.052 33.864 105.524 33.68 105.972 33.456C106.1 33.392 106.244 33.36 106.404 33.36C106.66 33.36 106.884 33.448 107.076 33.624C107.268 33.8 107.364 34.024 107.364 34.296C107.364 34.488 107.3 34.664 107.172 34.824C107.06 34.968 106.916 35.088 106.74 35.184C106.212 35.488 105.636 35.744 105.012 35.952C104.404 36.144 103.58 36.24 102.54 36.24ZM98.5319 28.872H105.612C105.564 28.04 105.348 27.368 104.964 26.856C104.596 26.344 104.148 25.968 103.62 25.728C103.092 25.488 102.572 25.368 102.06 25.368C101.548 25.368 101.028 25.488 100.5 25.728C99.9719 25.968 99.5239 26.344 99.1559 26.856C98.7879 27.368 98.5799 28.04 98.5319 28.872ZM111.742 36.12C111.438 36.12 111.182 36.016 110.974 35.808C110.766 35.6 110.662 35.344 110.662 35.04V24.744C110.662 24.44 110.766 24.184 110.974 23.976C111.182 23.752 111.438 23.64 111.742 23.64C112.046 23.64 112.302 23.752 112.51 23.976C112.734 24.184 112.846 24.44 112.846 24.744V25.776C113.278 25.2 113.806 24.68 114.43 24.216C115.054 23.752 115.782 23.52 116.614 23.52H116.734C117.038 23.52 117.286 23.624 117.478 23.832C117.686 24.04 117.79 24.296 117.79 24.6C117.79 24.904 117.686 25.152 117.478 25.344C117.27 25.536 117.006 25.632 116.686 25.632H116.566C115.782 25.632 115.07 25.832 114.43 26.232C113.79 26.616 113.262 27.12 112.846 27.744V35.04C112.846 35.344 112.734 35.6 112.51 35.808C112.302 36.016 112.046 36.12 111.742 36.12ZM120.881 21.264C120.545 21.264 120.257 21.144 120.017 20.904C119.777 20.664 119.657 20.376 119.657 20.04V19.944C119.657 19.608 119.777 19.32 120.017 19.08C120.257 18.84 120.545 18.72 120.881 18.72H121.025C121.361 18.72 121.649 18.84 121.889 19.08C122.129 19.32 122.249 19.608 122.249 19.944V20.04C122.249 20.376 122.129 20.664 121.889 20.904C121.649 21.144 121.361 21.264 121.025 21.264H120.881ZM120.929 36.12C120.625 36.12 120.369 36.016 120.161 35.808C119.953 35.6 119.849 35.344 119.849 35.04V24.744C119.849 24.424 119.953 24.16 120.161 23.952C120.369 23.744 120.625 23.64 120.929 23.64C121.249 23.64 121.513 23.744 121.721 23.952C121.929 24.16 122.033 24.424 122.033 24.744V35.04C122.033 35.344 121.929 35.6 121.721 35.808C121.513 36.016 121.249 36.12 120.929 36.12ZM129.786 36.24C128.906 36.24 128.106 36.144 127.386 35.952C126.682 35.76 126.026 35.496 125.418 35.16C125.146 34.968 125.01 34.704 125.01 34.368C125.01 34.128 125.098 33.912 125.274 33.72C125.45 33.512 125.674 33.408 125.946 33.408C126.09 33.408 126.234 33.44 126.378 33.504C126.81 33.696 127.282 33.864 127.794 34.008C128.322 34.152 128.938 34.224 129.642 34.224C130.57 34.224 131.242 34.08 131.658 33.792C132.09 33.488 132.306 33.064 132.306 32.52C132.306 32.168 132.13 31.896 131.778 31.704C131.442 31.512 130.994 31.352 130.434 31.224C129.89 31.08 129.314 30.936 128.706 30.792C128.098 30.632 127.514 30.424 126.954 30.168C126.41 29.896 125.962 29.536 125.61 29.088C125.274 28.624 125.106 28.032 125.106 27.312C125.106 26.224 125.498 25.32 126.282 24.6C127.066 23.88 128.234 23.52 129.786 23.52C130.442 23.52 131.058 23.576 131.634 23.688C132.226 23.8 132.77 23.944 133.266 24.12C133.49 24.184 133.658 24.312 133.77 24.504C133.898 24.68 133.962 24.856 133.962 25.032C133.962 25.288 133.866 25.512 133.674 25.704C133.498 25.896 133.274 25.992 133.002 25.992C132.938 25.992 132.882 25.992 132.834 25.992C132.786 25.976 132.738 25.96 132.69 25.944C132.306 25.816 131.882 25.712 131.418 25.632C130.97 25.552 130.482 25.512 129.954 25.512C129.074 25.512 128.394 25.672 127.914 25.992C127.434 26.312 127.194 26.712 127.194 27.192C127.194 27.608 127.362 27.928 127.698 28.152C128.05 28.376 128.498 28.56 129.042 28.704C129.602 28.832 130.186 28.968 130.794 29.112C131.418 29.256 132.002 29.464 132.546 29.736C133.106 29.992 133.554 30.352 133.89 30.816C134.242 31.28 134.418 31.904 134.418 32.688C134.418 33.664 134.026 34.504 133.242 35.208C132.474 35.896 131.322 36.24 129.786 36.24ZM141.607 36.12C141.303 36.12 141.031 36.032 140.791 35.856C140.567 35.68 140.399 35.472 140.287 35.232L136.111 25.248C136.031 25.056 135.991 24.888 135.991 24.744C135.991 24.44 136.095 24.184 136.303 23.976C136.511 23.752 136.767 23.64 137.071 23.64C137.295 23.64 137.495 23.704 137.671 23.832C137.863 23.944 137.991 24.088 138.055 24.264L141.727 33.576L145.399 24.264C145.479 24.088 145.607 23.944 145.783 23.832C145.975 23.704 146.175 23.64 146.383 23.64C146.687 23.64 146.943 23.752 147.151 23.976C147.359 24.184 147.463 24.44 147.463 24.744C147.463 24.888 147.423 25.056 147.343 25.248L143.167 35.232C143.055 35.472 142.879 35.68 142.639 35.856C142.415 36.032 142.151 36.12 141.847 36.12H141.607ZM155.298 36.24C153.346 36.24 151.818 35.688 150.714 34.584C149.626 33.464 149.082 31.896 149.082 29.88C149.082 28.792 149.282 27.768 149.682 26.808C150.082 25.832 150.706 25.04 151.554 24.432C152.402 23.824 153.49 23.52 154.818 23.52C156.05 23.52 157.09 23.808 157.938 24.384C158.786 24.944 159.426 25.68 159.858 26.592C160.306 27.504 160.53 28.496 160.53 29.568C160.53 29.872 160.426 30.128 160.218 30.336C160.026 30.544 159.762 30.648 159.426 30.648H151.29C151.418 31.72 151.826 32.584 152.514 33.24C153.202 33.88 154.194 34.2 155.49 34.2C156.21 34.2 156.818 34.136 157.314 34.008C157.81 33.864 158.282 33.68 158.73 33.456C158.858 33.392 159.002 33.36 159.162 33.36C159.418 33.36 159.642 33.448 159.834 33.624C160.026 33.8 160.122 34.024 160.122 34.296C160.122 34.488 160.058 34.664 159.93 34.824C159.818 34.968 159.674 35.088 159.498 35.184C158.97 35.488 158.394 35.744 157.77 35.952C157.162 36.144 156.338 36.24 155.298 36.24ZM151.29 28.872H158.37C158.322 28.04 158.106 27.368 157.722 26.856C157.354 26.344 156.906 25.968 156.378 25.728C155.85 25.488 155.33 25.368 154.818 25.368C154.306 25.368 153.786 25.488 153.258 25.728C152.73 25.968 152.282 26.344 151.914 26.856C151.546 27.368 151.338 28.04 151.29 28.872Z" fill="white"/>
<path d="M164.523 36.072C164.155 36.072 163.835 35.944 163.563 35.688C163.307 35.416 163.179 35.096 163.179 34.728V34.584C163.179 34.216 163.307 33.904 163.563 33.648C163.835 33.376 164.155 33.24 164.523 33.24H164.763C165.131 33.24 165.443 33.376 165.699 33.648C165.971 33.904 166.107 34.216 166.107 34.584V34.728C166.107 35.096 165.971 35.416 165.699 35.688C165.443 35.944 165.131 36.072 164.763 36.072H164.523Z" fill="#118DF0"/>
</svg>
